<svg id="e8b19322-cb85-4945-b99a-d05a6d570487" height="512" viewBox="0 0 64 64" width="512" xmlns="http://www.w3.org/2000/svg" data-name="line"><path d="m36.09375 16.10156a2.33848 2.33848 0 0 0 -3.06537 3.067 1.00029 1.00029 0 0 0 1.79093-.89073c-.07258-.14643.24364-.45335.38579-.3842a1.00013 1.00013 0 1 0 .88865-1.792z"/><path d="m33.9248 14.92822a1.0056 1.0056 0 0 0 .89451-1.44483c-.07158-.14632.2434-.45651.38579-.38474a1.00023 1.00023 0 0 0 .88861-1.792 2.33835 2.33835 0 0 0 -3.06532 3.06648.9998.9998 0 0 0 .89641.55509z"/><path d="m30.16113 18.69141a1.0055 1.0055 0 0 0 .89549-1.44337c-.0717-.14132.23765-.45995.3848-.38669a.99979.99979 0 0 0 .88858-1.79105 2.33826 2.33826 0 0 0 -3.0663 3.06452.99982.99982 0 0 0 .89743.55659z"/><path d="m58 27.43018a2.0023 2.0023 0 0 0 2-2v-3.75a2.00229 2.00229 0 0 0 -2-2h-2.63965a1.00009 1.00009 0 0 0 0 2h2.63965v3.75c-.66392-.0099-10.25772.00713-11.23041 0l-.00006-3.75h4.4707a1.00012 1.00012 0 0 0 0-2h-4.4707v-2.66663a1.99654 1.99654 0 0 0 1.4502-1.91345v-4.18018a2.00229 2.00229 0 0 0 -2-2h-6.51447a9.29825 9.29825 0 0 0 -15.41045.00017l-6.51454-.00017a2.00229 2.00229 0 0 0 -2 2v4.18018a1.99654 1.99654 0 0 0 1.4502 1.91345v2.66663h-11.23047a2.00229 2.00229 0 0 0 -2 2v3.75a2.115 2.115 0 0 0 2.57033 1.99993v24.85993h-.57033a2.00229 2.00229 0 0 0 -2 2v2.91996a2.00229 2.00229 0 0 0 2 2h37.71a1.00008 1.00008 0 0 0 0-2h-37.71v-2.92c.50315.03424 39.2895-.0002 52 0v2.92h-10.16992a1.00011 1.00011 0 0 0 0 2h10.16992a2.00229 2.00229 0 0 0 2-2v-2.92a2.11481 2.11481 0 0 0 -2.57033-1.99994v-24.85992zm-40.76953 24.85982h-8.66016v-24.85982h8.66016zm0-26.85986h-11.23047v-3.75h11.23047zm14.76953-18.63864a7.27408 7.27408 0 0 1 7.26562 7.26563c-.38145 9.63179-14.15126 9.62909-14.53126-.00008a7.27408 7.27408 0 0 1 7.26564-7.26555zm-14.21973 8.3086v-4.18018h5.51252a9.12408 9.12408 0 0 0 -.49566 4.18018zm21.50973 37.1899h-6.29v-20.10982h3.5498a2.74321 2.74321 0 0 1 2.7402 2.73974zm5.47949 0h-3.47949v-17.37008a4.74519 4.74519 0 0 0 -4.74024-4.73974h-9.09956a4.74519 4.74519 0 0 0 -4.7402 4.73974v7.68018a1.0001 1.0001 0 0 0 2 0v-7.68018a2.74321 2.74321 0 0 1 2.74024-2.73974h3.54976v20.10982h-6.29v-5.56979a1.0001 1.0001 0 0 0 -2 .00005v5.56974h-3.47953v-35.1899h4.02777a9.27068 9.27068 0 0 0 17.48352-.0001l4.02777.00014zm1.4502-37.18994h-5.01681a9.12317 9.12317 0 0 0 -.49567-4.18018h5.51252zm9.21 37.18994h-8.66016v-24.85982h8.66016z"/><path d="m50.209 33.60107h1.78223a1 1 0 0 0 0-2h-1.78223a1.0001 1.0001 0 0 0 0 2z"/><path d="m50.209 37.96729h1.78223a1 1 0 0 0 0-2h-1.78223a1.0001 1.0001 0 0 0 0 2z"/><path d="m50.209 42.3335h1.78223a1 1 0 1 0 0-2h-1.78223a1.0001 1.0001 0 0 0 0 2z"/><path d="m11.61523 33.60107h1.78223a1 1 0 1 0 0-2h-1.78223a1.0001 1.0001 0 0 0 0 2z"/><path d="m11.61523 37.96729h1.78223a1 1 0 1 0 0-2h-1.78223a1.0001 1.0001 0 0 0 0 2z"/><path d="m11.61523 42.3335h1.78223a1 1 0 1 0 0-2h-1.78223a1.0001 1.0001 0 0 0 0 2z"/></svg>