<svg fill="none" height="48" viewBox="0 0 48 48" width="48" xmlns="http://www.w3.org/2000/svg"><g fill="#000"><path d="m15 13c0 1.1046-.8954 2-2 2s-2-.8954-2-2 .8954-2 2-2 2 .8954 2 2z"/><path d="m13 27c1.1046 0 2-.8954 2-2s-.8954-2-2-2-2 .8954-2 2 .8954 2 2 2z"/><path d="m25 15c1.1046 0 2-.8954 2-2s-.8954-2-2-2-2 .8954-2 2 .8954 2 2 2z"/><path d="m29 31c1.1046 0 2-.8954 2-2s-.8954-2-2-2-2 .8954-2 2 .8954 2 2 2z"/><path d="m25 23c0 1.1046-.8954 2-2 2s-2-.8954-2-2 .8954-2 2-2 2 .8954 2 2z"/><path d="m23 37c1.1046 0 2-.8954 2-2s-.8954-2-2-2-2 .8954-2 2 .8954 2 2 2z"/><path d="m37 23c0 1.1046-.8954 2-2 2s-2-.8954-2-2 .8954-2 2-2 2 .8954 2 2z"/><path d="m35 37c1.1046 0 2-.8954 2-2s-.8954-2-2-2-2 .8954-2 2 .8954 2 2 2z"/><path clip-rule="evenodd" d="m6 11c0-2.76142 2.23858-5 5-5h16c2.7614 0 5 2.23858 5 5v5h5c2.7614 0 5 2.2386 5 5v16c0 2.7614-2.2386 5-5 5h-16c-2.7614 0-5-2.2386-5-5v-5h-5c-2.76142 0-5-2.2386-5-5zm24 0v5h-9c-2.7614 0-5 2.2386-5 5v9h-5c-1.65685 0-3-1.3431-3-3v-16c0-1.65685 1.34315-3 3-3h16c1.6569 0 3 1.34315 3 3zm-9 7c-1.6569 0-3 1.3431-3 3v16c0 1.6569 1.3431 3 3 3h16c1.6569 0 3-1.3431 3-3v-16c0-1.6569-1.3431-3-3-3z" fill-rule="evenodd"/></g></svg>