<svg id="Layer_1" enable-background="new 0 0 512 512" viewBox="0 0 512 512" xmlns="http://www.w3.org/2000/svg"><path d="m496 9h-480c-3.866 0-7 3.134-7 7v480c0 3.866 3.134 7 7 7h480c3.866 0 7-3.134 7-7v-480c0-3.866-3.134-7-7-7zm-7 74.788h-145.042v-60.788h145.042zm-306.958 0v-60.788h147.916v60.788zm-14-60.788v60.788h-145.042v-60.788zm-80.958 316.985h-34.704v-61.697h34.705v61.697zm323.831 149.015h-147.915v-359.725h147.916v359.725zm-161.915 0h-147.916v-359.725h147.916zm175.915 0v-366.725c0-3.866-3.134-7-7-7h-323.831c-3.866 0-7 3.134-7 7v142.014h-41.704c-3.866 0-7 3.134-7 7v75.697c0 3.866 3.134 7 7 7h41.705v135.014h-64.085v-391.212h466v391.212zm-298.385-211.461h19.905v112.208c0 3.866 3.134 7 7 7h43.214c3.866 0 7-3.134 7-7v-112.208h19.905c2.923 0 5.538-1.815 6.559-4.554s.233-5.823-1.977-7.737l-48.512-42.013c-2.631-2.278-6.535-2.278-9.165 0l-48.513 42.013c-2.209 1.914-2.998 4.998-1.977 7.737s3.638 4.554 6.561 4.554zm48.512-39.752 29.736 25.752h-8.129c-3.866 0-7 3.134-7 7v112.208h-29.214v-112.207c0-3.866-3.134-7-7-7h-8.129zm108.821 115.24 48.513 42.013c1.315 1.139 2.949 1.708 4.583 1.708s3.268-.569 4.583-1.708l48.512-42.013c2.209-1.914 2.998-4.999 1.977-7.737s-3.636-4.555-6.559-4.555h-19.905v-112.208c0-3.866-3.134-7-7-7h-43.217c-3.866 0-7 3.134-7 7v112.208h-19.905c-2.923 0-5.538 1.816-6.559 4.555s-.233 5.823 1.977 7.737zm31.487 1.708c3.866 0 7-3.134 7-7v-112.208h29.215v112.208c0 3.866 3.134 7 7 7h8.129l-29.737 25.753-29.737-25.753zm-253.705-31.868c0-4.467 3.621-8.087 8.087-8.087s8.087 3.621 8.087 8.087-3.621 8.087-8.087 8.087-8.087-3.62-8.087-8.087zm0-27.46c0-4.466 3.621-8.087 8.087-8.087s8.087 3.621 8.087 8.087c0 4.467-3.621 8.087-8.087 8.087s-8.087-3.62-8.087-8.087zm247.927-242.013c0 4.467-3.621 8.087-8.087 8.087-4.467 0-8.087-3.621-8.087-8.087s3.621-8.087 8.087-8.087 8.087 3.62 8.087 8.087zm-90.97 0c0 4.467-3.621 8.087-8.087 8.087s-8.087-3.621-8.087-8.087 3.621-8.087 8.087-8.087 8.087 3.62 8.087 8.087zm30.323 0c0 4.467-3.621 8.087-8.087 8.087s-8.087-3.621-8.087-8.087 3.621-8.087 8.087-8.087 8.087 3.62 8.087 8.087zm30.324 0c0 4.467-3.621 8.087-8.087 8.087s-8.087-3.621-8.087-8.087 3.621-8.087 8.087-8.087 8.087 3.62 8.087 8.087z"/></svg>