<svg id="Layer_1" enable-background="new 0 0 500 500" viewBox="0 0 500 500" xmlns="http://www.w3.org/2000/svg"><path clip-rule="evenodd" d="m149.249 224.423c12.144-20.161 28.096-36.373 49.202-48.224 3.151-1.766 4.273-5.752 2.507-8.902-1.766-3.151-5.752-4.273-8.902-2.507-16.329 9.169-30.065 20.905-41.381 34.864-.237.293-.615.399-.97.273s-.581-.446-.581-.823v-89.847c0-3.617-2.932-6.549-6.549-6.549s-6.549 2.932-6.549 6.549v89.847c0 .377-.226.697-.581.823s-.733.02-.97-.273c-11.316-13.959-25.052-25.695-41.381-34.864-3.151-1.766-7.137-.644-8.902 2.507-1.766 3.151-.644 7.137 2.507 8.902 11.273 6.342 20.88 13.794 29.12 22.155 7.807 7.921 14.419 16.668 20.082 26.069.086.142.125.284.125.45v11.253c0 8.156 13.098 8.156 13.098 0v-11.253c0-.166.04-.308.125-.45zm270.279 135.315h-43.556c-.481 0-.873-.392-.873-.873v-38.765c0-.481.392-.873.873-.873h35.333c.512 0 .955-.443.955-.955v-44.388c0-.512-.443-.955-.955-.955h-195.163c-.512 0-.956.443-.956.955v44.388c0 .513.443.955.956.955h35.333c.481 0 .873.392.873.873v38.765c0 .481-.392.873-.873.873h-43.556c-2.272 0-4.155 1.883-4.155 4.155v24.282c0 2.272 1.883 4.155 4.155 4.155h211.609c2.272 0 4.155-1.882 4.155-4.155v-24.282c0-2.272-1.882-4.155-4.155-4.155zm-58.399 0h-94.81c-.481 0-.873-.392-.873-.873v-38.765c0-.481.392-.873.873-.873h94.81c.481 0 .873.392.873.873v38.765c0 .481-.392.873-.873.873zm-212.005-102.993v180.401c0 .481.392.873.873.873h69.494c.481 0 .873-.392.873-.873v-32.355c0-.481.392-.873.873-.873h11.352c.481 0 .873.392.873.873v32.355c0 .481.392.873.873.873h158.777c.481 0 .873-.392.873-.873v-32.355c0-.481.392-.873.873-.873h11.352c.481 0 .873.392.873.873v32.355c0 .481.392.873.873.873h54.537c3.617 0 6.549 2.932 6.549 6.549s-2.932 6.549-6.549 6.549h-360.778c-3.617 0-6.549-2.932-6.549-6.549s2.932-6.549 6.549-6.549h33.438c.481 0 .873-.392.873-.873v-180.592c0-.466-.366-.85-.832-.872-12.867-.607-25.603-2.361-37.555-5.236-37.287-8.972-66.682-28.781-66.682-58.431 0-31.288 26.408-55.991 57.627-54.018 4.906.31 8.82-4.909 5.996-9.916-.005-.008-.009-.016-.013-.024-1.946-3.72-3.476-7.716-4.523-11.925-8.469-34.029 17.264-67.249 52.531-67.249s61 33.219 52.531 67.248c-1.08 4.34-2.673 8.454-4.706 12.273-2.42 4.542 1.133 9.902 6.165 9.581l.001.012c31.147-1.983 57.628 22.686 57.628 54.018 0 30.696-27.469 50.073-62.945 58.685-13.003 3.157-27.054 4.87-41.269 5.173-.476.01-.856.398-.856.872z" fill-rule="evenodd"/></svg>