<svg id="Capa_1" enable-background="new 0 0 508.42 508.42" height="512" viewBox="0 0 508.42 508.42" width="512" xmlns="http://www.w3.org/2000/svg"><g><path d="m462.59 219.33c8.547 0 15.5-6.953 15.5-15.5v-19.54h14.83c8.547 0 15.5-6.953 15.5-15.5v-35.53c0-8.547-6.953-15.5-15.5-15.5h-9.424l-220.332-114.726c-5.606-2.909-12.3-2.926-17.896-.047l-223.82 114.773h-5.948c-8.547 0-15.5 6.953-15.5 15.5v35.53c0 8.547 6.953 15.5 15.5 15.5h14.83v19.54c0 8.547 6.953 15.5 15.5 15.5h4.5v186.69h-4.5c-8.547 0-15.5 6.953-15.5 15.5v19.53h-14.83c-8.547 0-15.5 6.953-15.5 15.5v35.53c0 8.547 6.953 15.5 15.5 15.5h339.42c4.143 0 7.5-3.357 7.5-7.5s-3.357-7.5-7.5-7.5h-339.42c-.271 0-.5-.229-.5-.5v-35.53c0-.267.233-.5.5-.5h477.42c.267 0 .5.233.5.5v35.53c0 .271-.229.5-.5.5h-103c-4.143 0-7.5 3.357-7.5 7.5s3.357 7.5 7.5 7.5h103c8.547 0 15.5-6.953 15.5-15.5v-35.53c0-8.547-6.953-15.5-15.5-15.5h-17.33v-17.689c0-8.547-6.953-15.5-15.5-15.5h-2v-188.531zm.5-15.5c0 .275-.225.5-.5.5h-79c-.275 0-.5-.225-.5-.5v-19.54h80zm-77 204.031c-8.547 0-15.5 6.953-15.5 15.5v17.689h-33.15v-140.82c0-22.221-8.656-43.121-24.379-58.855-15.729-15.718-36.629-24.375-58.851-24.375-45.893 0-83.23 37.337-83.23 83.229v140.82h-30.65v-19.53c0-8.547-6.953-15.5-15.5-15.5h-4.5v-186.689h4.5c8.547 0 15.5-6.953 15.5-15.5v-19.54h227.76v19.54c0 8.547 6.953 15.5 15.5 15.5h4.5v188.53h-2zm-63.65 33.189h-136.46v-140.82c0-37.622 30.608-68.229 68.23-68.229 18.217 0 35.352 7.098 48.245 19.981 12.888 12.896 19.985 30.032 19.985 48.248zm-307.44-272.26v-35.53c0-.271.229-.5.5-.5h89.35c4.142 0 7.5-3.357 7.5-7.5s-3.358-7.5-7.5-7.5h-50.528l197.8-101.431c1.289-.664 2.833-.657 4.125.014l194.77 101.417h-311.167c-4.142 0-7.5 3.357-7.5 7.5s3.358 7.5 7.5 7.5h353.07c.271 0 .5.229.5.5v35.53c0 .271-.229.5-.5.5h-477.42c-.271 0-.5-.228-.5-.5zm30.33 35.04v-19.54h80v19.54c0 .275-.224.5-.5.5h-79c-.276 0-.5-.224-.5-.5zm20 15.5h40v186.69h-40zm-20 202.19c0-.275.224-.5.5-.5h79c.276 0 .5.225.5.5v19.53h-80zm415.26 1.841v17.689h-75v-17.689c0-.275.225-.5.5-.5h74c.275 0 .5.224.5.5zm-17.5-15.5h-40v-188.531h40z"/><path d="m254.21 96.014c16.248 0 29.467-13.219 29.467-29.467s-13.219-29.467-29.467-29.467-29.467 13.219-29.467 29.467 13.219 29.467 29.467 29.467zm0-43.934c7.977 0 14.467 6.49 14.467 14.467s-6.49 14.467-14.467 14.467-14.467-6.49-14.467-14.467 6.49-14.467 14.467-14.467z"/></g></svg>