<svg id="Capa_1" enable-background="new 0 0 512 512" viewBox="0 0 512 512" xmlns="http://www.w3.org/2000/svg"><g><circle cx="175.929" cy="76.929" r="10"/><path d="m400.998 222.356c.001-.119.002-.238.002-.356 0-16.542-13.458-30-30-30h-55c-5.514 0-10-4.486-10-10v-65.427c6.258 2.219 12.991 3.427 20 3.427 33.084 0 60-26.916 60-60s-26.916-60-60-60c-26 0-48.19 16.623-56.501 39.8-19.045-.192-37.828 2.621-55.955 8.387-5.263 1.674-8.173 7.297-6.498 12.561 1.354 4.255 5.288 6.971 9.526 6.971 1.005 0 2.026-.152 3.034-.473 15.046-4.786 30.612-7.279 46.394-7.445v.199c0 17.731 7.731 33.691 20 44.685v77.315c0 16.542 13.458 30 30 30h25v20h-25.701c-29.451 0-54.342-21.085-59.184-50.136l-10.251-61.508c-.909-5.447-6.069-9.13-11.508-8.22-5.448.908-9.128 6.06-8.221 11.508l7.475 44.852-22.826 50.725-97.968-38.335c6.297-25.139 18.664-48.524 36.31-68.09 3.699-4.101 3.373-10.424-.729-14.123-4.101-3.698-10.423-3.374-14.123.729-29.826 33.07-46.252 75.835-46.252 120.416 0 5.945.667 11.798 1.957 17.466l-8.971 224.316c-.005.133-.008.267-.008.4v40c0 5.523 4.478 10 10 10h70c5.522 0 10-4.477 10-10v-15c0-15.279-9.842-28.303-23.518-33.065l21.705-130.227 21.813 18.004v160.288c0 5.523 4.478 10 10 10h70c5.522 0 10-4.477 10-10v-15c0-15.467-10.085-28.622-24.024-33.237l12.396-111.557c1.229-11.071-.641-22.244-5.409-32.311l-36.948-78.003 13.791-30.648c11.768 30.189 40.906 50.756 74.493 50.756h46.063c-.24 1.65-.362 3.321-.362 5v245c0 5.523 4.478 10 10 10s10-4.477 10-10v-245c0-2.687.688-5.243 2.007-7.509 3.847-1.687 7.274-4.158 10.079-7.21.953-.187 1.927-.281 2.914-.281 8.271 0 15 6.729 15 15v5c0 5.523 4.478 10 10 10s10-4.477 10-10v-5c0-17.602-13.062-32.211-30.002-34.644zm-74.998-202.356c22.056 0 40 17.944 40 40s-17.944 40-40 40-40-17.944-40-40 17.944-40 40-40zm-175 467v5h-50v-20h35c8.271 0 15 6.729 15 15zm-23.472-35h-26.12l7.172-179.291c2.438 2.655 5.073 5.158 7.897 7.49l34.885 28.796zm133.472 35v5h-50v-20h35c8.271 0 15 6.729 15 15zm-15.112-168.543c3.18 6.712 4.427 14.161 3.607 21.542l-12.445 112.001h-26.05v-115c0-2.984-1.333-5.812-3.634-7.712l-78.157-64.513c-13.464-11.114-21.186-27.5-21.186-44.958 0-6.349.375-12.657 1.114-18.894l99.524 38.944zm125.112-86.457h-10v-20h10c5.514 0 10 4.486 10 10s-4.486 10-10 10z"/></g><g/><g/><g/><g/><g/><g/><g/><g/><g/><g/><g/><g/><g/><g/><g/></svg>