<svg id="Layer_1" viewBox="0 0 512 512" xmlns="http://www.w3.org/2000/svg" data-name="Layer 1"><path d="m320.72 191.29a91.52 91.52 0 1 0 0 129.43 91.53 91.53 0 0 0 0-129.43zm-64.72-46.58a111.3 111.3 0 1 1 -111.3 111.29 111.3 111.3 0 0 1 111.3-111.29zm-100.22-89.47a477.65 477.65 0 0 0 95.52-38 9.88 9.88 0 0 1 9.3-.06 477.29 477.29 0 0 0 95.62 38.08 500 500 0 0 0 102.53 17.11 9.86 9.86 0 0 1 9.91 9.88v122.51.07c-.73 75.26-18.37 136.17-53.26 184.25s-86.87 83.07-156.23 106.38a9.79 9.79 0 0 1 -6.26 0c-69.36-23.31-121.31-58.27-156.23-106.38-34.79-47.88-52.42-108.49-53.29-183.31a8.44 8.44 0 0 1 0-1v-122.52a9.87 9.87 0 0 1 9.28-9.85 500.05 500.05 0 0 0 103.11-17.16zm100.22-18.24c60.35 31.13 125.32 49.07 192.89 54.42v113.34c-.71 70.92-17.12 128-49.56 172.73-31.92 44-79.6 76.26-143.37 98.21-63.77-21.95-111.45-54.23-143.37-98.21-32.29-44.55-48.69-101.41-49.51-171.99 0-.24 0-.49 0-.74v-113.32c67.6-5.35 132.57-23.29 192.92-54.44zm35.45 181a9.86 9.86 0 0 1 14.44 13.44l-58.27 62.67a9.85 9.85 0 0 1 -15-.61l-26.62-29.5a9.84 9.84 0 1 1 14.6-13.21l19.85 21.93z" fill-rule="evenodd"/></svg>