<svg id="Capa_1" enable-background="new 0 0 511.999 511.999" height="512" viewBox="0 0 511.999 511.999" width="512" xmlns="http://www.w3.org/2000/svg"><path d="m505.459 295.306-31.443-21.474 8.732-6.976c7.734-6.178 7.467-18.068-.581-23.879l-288.428-208.295c-12.955-9.357-30.943-6.925-40.951 5.532l-94.791 117.986c-10.78 13.421-8.059 33.196 5.953 43.203l72.06 51.46-28.93 41.102c-4.788 6.803-3.121 16.208 3.709 20.954l10.312 7.162c-16.826 16.236-39.391 25.422-62.96 25.422h-28.141v-32.5c0-8.284-6.716-15-15-15s-15 6.716-15 15v153c0 8.284 6.716 15 15 15s15-6.716 15-15v-30.5h20.332c53.842 0 106.482-22.644 143.871-64.65l15.003 10.42c6.848 4.756 16.263 3.011 20.954-3.876l27.175-39.893 61.787 44.124c5.453 3.894 12.837 3.702 18.08-.488l22.387-17.886 58.21 41.897c6.466 4.654 15.437 3.44 20.436-2.755l70.439-87.282c5.492-6.807 4.016-16.871-3.215-21.808zm-455.127 112.196h-20.332v-30h28.14c33.356 0 65.198-13.829 87.956-38.062l23.256 16.152c-30.511 32.741-73.931 51.91-119.02 51.91zm163.554-57.505-73.587-51.108 20.125-28.592 72.491 51.768zm113.445 2.629-245.947-175.637 94.791-117.986 272.424 196.737zm96.471 21.882-39.875-28.701 65.574-52.39 25.622 17.499z"/><circle cx="376" cy="241.002" r="15"/></svg>