<svg id="Layer_1" enable-background="new 0 0 512 512" height="512" viewBox="0 0 512 512" width="512" xmlns="http://www.w3.org/2000/svg"><g><path d="m256 241c-8.284 0-15 6.716-15 15v32.133c0 8.284 6.716 15 15 15s15-6.716 15-15v-32.133c0-8.284-6.716-15-15-15z"/><path d="m256 449.867c-8.284 0-15 6.716-15 15v32.133c0 8.284 6.716 15 15 15s15-6.716 15-15v-32.133c0-8.284-6.716-15-15-15z"/><path d="m256 337.4c-8.284 0-15 6.716-15 15v32.133c0 8.284 6.716 15 15 15s15-6.716 15-15v-32.133c0-8.284-6.716-15-15-15z"/><path d="m146.395 437.387c-7.654-3.169-16.428.467-19.597 8.121l-12.291 29.687c-3.169 7.654.467 16.428 8.122 19.597 9.535 3.948 17.324-2.631 19.597-8.122l12.291-29.687c3.169-7.653-.468-16.427-8.122-19.596z"/><path d="m385.202 445.508c-3.169-7.654-11.943-11.289-19.597-8.121-7.654 3.169-11.291 11.943-8.122 19.597l12.291 29.687c2.27 5.482 9.969 12.106 19.597 8.122 7.654-3.169 11.291-11.943 8.122-19.597z"/><path d="m189.442 333.483c-7.653-3.168-16.428.463-19.599 8.117l-12.299 29.687c-3.171 7.653.463 16.428 8.117 19.599 9.507 3.938 17.31-2.592 19.599-8.117l12.299-29.687c3.17-7.653-.464-16.428-8.117-19.599z"/><path d="m342.158 341.6c-3.171-7.654-11.945-11.287-19.599-8.117-7.653 3.171-11.288 11.946-8.117 19.599l12.299 29.687c2.271 5.481 9.974 12.105 19.599 8.117 7.653-3.171 11.288-11.946 8.117-19.599z"/><path d="m174.804 245.394-22.718 22.722c-5.857 5.858-5.857 15.356.001 21.213 5.868 5.867 15.366 5.847 21.213-.001l22.718-22.722c5.857-5.858 5.857-15.356-.001-21.213s-15.356-5.857-21.213.001z"/><path d="m338.7 289.328c5.857 5.856 15.353 5.86 21.213.001 5.858-5.857 5.859-15.355.001-21.213l-22.718-22.722c-5.857-5.857-15.355-5.859-21.213-.001s-5.859 15.355-.001 21.213z"/><path d="m27.111 393.086-22.718 22.721c-5.857 5.858-5.857 15.356.001 21.213 5.868 5.867 15.366 5.847 21.213-.001l22.718-22.721c5.857-5.858 5.857-15.356-.001-21.213s-15.356-5.858-21.213.001z"/><path d="m507.608 415.807-22.718-22.721c-5.858-5.858-15.355-5.858-21.213-.001s-5.859 15.355-.001 21.213l22.718 22.721c5.856 5.856 15.353 5.86 21.213.001 5.857-5.857 5.858-15.355.001-21.213z"/><path d="m127.856 313.56c-5.857-5.859-15.355-5.86-21.213-.002l-22.726 22.722c-5.858 5.857-5.859 15.354-.002 21.213 5.856 5.858 15.355 5.86 21.213.002l22.726-22.722c5.858-5.857 5.859-15.355.002-21.213z"/><path d="m405.358 313.558c-5.858-5.858-15.356-5.857-21.213.002-5.857 5.858-5.856 15.356.002 21.213l22.726 22.722c5.857 5.857 15.355 5.857 21.213-.002 5.857-5.858 5.856-15.356-.002-21.213z"/><path d="m330.873 89.873c2.813-2.813 4.394-6.628 4.394-10.606v-19.267h-158.533v19.267c0 3.978 1.581 7.793 4.394 10.606l59.872 59.873v26.987h-49.267c-8.284 0-15 6.716-15 15s6.716 15 15 15h128.533c8.284 0 15-6.716 15-15s-6.716-15-15-15h-49.266v-26.987z"/><path d="m15 30h482c8.284 0 15-6.716 15-15s-6.716-15-15-15h-482c-8.284 0-15 6.716-15 15s6.716 15 15 15z"/></g></svg>