<svg id="Layer_1" enable-background="new 0 0 512 512" viewBox="0 0 512 512" xmlns="http://www.w3.org/2000/svg"><path d="m471.22 152.9c-9.55-1.87-21.87 3.36-27.84 23.69l-21.36 72.97c-5.34.29-11.14 2.58-16.7 7.76-6.24 5.82-12.51 11.44-18.57 16.88-20.03 17.96-38.94 34.93-53.05 55.57-16.03 23.44-23.71 48.39-24.18 78.52v.12 39.77h-4.76c-7.16 0-12.98 5.82-12.98 12.98v37.84c0 7.16 5.82 12.98 12.98 12.98h101.14c7.16 0 12.98-5.82 12.98-12.98v-37.84c0-7.16-5.82-12.98-12.98-12.98h-4.38l.16-10.01c.08-5.86 2.17-10.67 6.39-14.7l37.27-35.77c17.68-16.94 27.48-37.01 29.95-61.37l14.71-143.41c1.47-14.47-6.77-27.66-18.78-30.02zm-68.33 343.11h-95.13v-31.83h95.13zm71.19-314.7-14.71 143.41c-2.07 20.42-10.28 37.25-25.11 51.45l-37.26 35.77c-7.36 7.04-11.17 15.79-11.31 26.01l-.16 10.24h-60.02v-39.71c.92-58.68 32.26-86.79 71.92-122.37 6.12-5.49 12.45-11.17 18.79-17.09 4-3.72 8.01-4.53 10.47-2.1 2.48 2.45 2.88 7.58-2.11 13.07l-51.17 56.38c-2.97 3.27-2.72 8.32.55 11.29 3.27 2.96 8.32 2.72 11.29-.55l51.16-56.38c11.53-12.69 9.48-27.31 1.5-35.2-.25-.25-.51-.49-.78-.73l21.58-73.73c2.74-9.33 6.8-13.02 9.42-12.5 2.91.59 6.7 5.45 5.95 12.74zm-266.81 266.88h-4.76v-39.77c0-.04 0-.08 0-.13-.48-30.12-8.17-55.07-24.2-78.51-14.12-20.64-33.03-37.61-53.06-55.57-6.06-5.44-12.33-11.06-18.58-16.89-5.57-5.19-11.36-7.47-16.7-7.76l-21.36-72.97c-5.95-20.32-18.27-25.57-27.82-23.69-12.02 2.35-20.27 15.55-18.78 30.04l14.71 143.41c2.5 24.4 12.31 44.47 29.97 61.36l37.27 35.77c4.22 4.05 6.31 8.86 6.39 14.7l.14 10.01h-4.39c-7.16 0-12.98 5.82-12.98 12.98v37.84c0 7.16 5.82 12.98 12.98 12.98h101.17c7.16 0 12.98-5.82 12.98-12.98v-37.84c.01-7.16-5.82-12.98-12.98-12.98zm-80.93-10.23c-.14-10.19-3.95-18.94-11.3-26.01l-37.29-35.78c-14.81-14.16-23.03-30.99-25.13-51.45l-14.71-143.4c-.75-7.3 3.04-12.15 5.95-12.72 2.63-.51 6.68 3.18 9.41 12.5l21.58 73.73c-.27.24-.53.48-.78.73-7.98 7.88-10.03 22.5 1.5 35.2l51.19 56.38c2.97 3.27 8.02 3.51 11.29.54s3.51-8.02.54-11.29l-51.19-56.38c-4.98-5.49-4.58-10.62-2.1-13.07 2.46-2.43 6.47-1.62 10.46 2.1 6.35 5.93 12.68 11.61 18.8 17.1 39.66 35.58 71 63.69 71.95 122.37v39.71h-60.04zm77.93 58.05h-95.16v-31.83h95.16zm154.58-367.82c-9.55-23.62-44.97-67.57-73.43-102.9-5.26-6.53-10.23-12.69-14.54-18.13-3.66-4.61-8.94-7.16-14.88-7.16-5.91 0-11.18 2.55-14.83 7.17-5.86 7.4-12.39 15.44-19.3 23.95-23.53 28.97-50.19 61.8-63.1 85.23-23.81 43.18-16.14 97.61 18.64 132.36 20.91 20.92 48.82 32.45 78.59 32.45s57.68-11.52 78.59-32.45c31.61-31.59 41.13-78.91 24.26-120.52zm-102.85 136.99c-25.5 0-49.39-9.86-67.28-27.76-29.78-29.75-36.33-76.36-15.94-113.34 12.22-22.18 38.4-54.42 61.51-82.87 6.95-8.55 13.51-16.63 19.43-24.12.62-.78 1.28-1.1 2.29-1.1 1.06 0 1.72.31 2.35 1.11 4.35 5.48 9.34 11.67 14.62 18.23 26.33 32.68 62.4 77.44 71.06 98.86 14.45 35.65 6.3 76.17-20.75 103.23-17.9 17.9-41.79 27.76-67.29 27.76zm-9.35-51.98c0 4.42-3.58 7.99-7.99 7.99h-14.14c-13.81 0-25.68-6.85-32.55-18.8-6.44-11.13-6.87-23.8-1.3-35.15l-3.87 1.04c-4.27 1.14-8.65-1.38-9.79-5.65-1.14-4.26 1.38-8.65 5.65-9.79l22.39-6.01c2.05-.55 4.23-.26 6.07.8s3.18 2.81 3.73 4.86l5.98 22.37c1.14 4.27-1.39 8.65-5.66 9.79-.69.19-1.39.27-2.07.27-3.53 0-6.76-2.36-7.72-5.93l-.92-3.45c-2.6 6.2-2.14 12.8 1.36 18.87 4.01 6.97 10.65 10.81 18.71 10.81h14.14c4.4-.02 7.98 3.56 7.98 7.98zm-35.27-82.04 14.12-24.46c6.87-11.94 18.74-18.79 32.55-18.79 13.79 0 25.67 6.85 32.57 18.79l15.66 27.13.99-3.7c1.14-4.26 5.52-6.8 9.79-5.66 4.26 1.14 6.8 5.52 5.66 9.79l-5.98 22.37c-.96 3.57-4.19 5.93-7.72 5.93-.68 0-1.38-.09-2.07-.27l-22.39-5.98c-4.27-1.14-6.8-5.52-5.66-9.79s5.52-6.8 9.79-5.66l3.78 1.01-15.68-27.16c-4.03-6.96-10.68-10.8-18.73-10.8s-14.69 3.83-18.7 10.79l-14.12 24.47c-2.21 3.82-7.09 5.14-10.92 2.93-3.84-2.22-5.15-7.11-2.94-10.94zm115.54 40.01c3.9 10.98 3 21.18-2.75 31.21-6.63 11.44-19.38 18.81-32.52 18.81h-.09l-14.38-.05 2.68 2.68c3.12 3.12 3.12 8.18 0 11.3-1.56 1.56-3.61 2.34-5.65 2.34s-4.09-.78-5.65-2.34l-16.38-16.38c-1.5-1.5-2.34-3.53-2.34-5.66 0-2.12.85-4.16 2.35-5.65l16.38-16.36c3.13-3.12 8.19-3.11 11.3.01 3.12 3.12 3.12 8.19-.01 11.3l-2.77 2.77 14.53.05c7.41 0 14.95-4.33 18.71-10.81 3.41-5.94 3.88-11.29 1.54-17.86-1.48-4.16.69-8.73 4.85-10.21 4.14-1.48 8.71.69 10.2 4.85z"/></svg>