<svg id="Capa_1" enable-background="new 0 0 512 512" height="512" viewBox="0 0 512 512" width="512" xmlns="http://www.w3.org/2000/svg"><g><path d="m201.262 213.855h-115.78c-8.284 0-15 6.716-15 15s6.716 15 15 15h115.779c8.284 0 15-6.716 15-15s-6.715-15-14.999-15z"/><path d="m201.262 153.851h-115.78c-8.284 0-15 6.716-15 15s6.716 15 15 15h115.779c8.284 0 15-6.716 15-15s-6.715-15-14.999-15z"/><path d="m85.482 123.847h223.699c8.284 0 15-6.716 15-15s-6.716-15-15-15h-223.699c-8.284 0-15 6.716-15 15s6.716 15 15 15z"/><path d="m201.262 273.451h-115.78c-8.284 0-15 6.716-15 15s6.716 15 15 15h115.779c8.284 0 15-6.716 15-15s-6.715-15-14.999-15z"/><path d="m201.262 323.454h-115.78c-8.284 0-15 6.716-15 15s6.716 15 15 15h115.779c8.284 0 15-6.716 15-15s-6.715-15-14.999-15z"/><path d="m201.262 383.458h-115.78c-8.284 0-15 6.716-15 15s6.716 15 15 15h115.779c8.284 0 15-6.716 15-15s-6.715-15-14.999-15z"/><path d="m511.467 263.731c-.062-8.246-6.766-14.886-14.998-14.886-.151.001-.312.002-.468.002-18.354 0-35.208-10.522-43.007-26.883-2.489-5.224-7.76-8.546-13.539-8.546-.037 0-.075 0-.111 0l-43.734.323v-188.74c0-13.785-11.215-25-25-25h-345.61c-13.785 0-25 11.215-25 25v461.998c0 13.785 11.215 25 25 25l356.473.001c.316 0 1.371-.073 1.507-.091 2.112-.221 4.187-.884 6.076-2.002l34.061-20.162c27.247-16.129 49.874-39.112 65.435-66.463 15.575-27.378 23.683-58.448 23.444-89.851zm-481.467-233.73h335.609v183.962l-46.412.343c-5.826.043-11.1 3.455-13.526 8.75-7.597 16.578-24.453 27.378-42.942 27.515-3.979.029-7.783 1.638-10.575 4.473-2.792 2.834-4.345 6.662-4.314 10.641l.529 69.699c.238 31.402 8.815 62.349 24.804 89.493 13.336 22.639 31.563 42.144 53.21 57.124l-296.383-.002zm377.835 433.927-26.549 15.715-26.785-15.322c-46.559-26.634-75.731-76.127-76.133-129.166l-.427-56.159c20.758-4.245 39.075-16.825 50.316-34.757l102.471-.757c11.513 17.769 30.017 30.076 50.842 34.012l.425 56.163c.403 53.037-28.014 102.954-74.16 130.271z"/><path d="m413.201 318.794-42.529 45.22-14.911-18.316c-5.23-6.425-14.679-7.393-21.103-2.162-6.425 5.23-7.393 14.678-2.163 21.103l25.73 31.605c2.73 3.354 6.775 5.366 11.097 5.52.18.007.358.01.537.01 4.129 0 8.086-1.704 10.926-4.724l54.27-57.704c5.676-6.035 5.385-15.528-.65-21.203-6.037-5.675-15.528-5.384-21.204.651z"/></g></svg>