<svg id="Portfolio" enable-background="new 0 0 128 128" height="512" viewBox="0 0 128 128" width="512" xmlns="http://www.w3.org/2000/svg"><g id="_x3C_Group_x3E_"><path id="_x31_1" d="m36.881 54.677h82.371c2.416 0 4.595.985 6.178 2.567v.015c1.582 1.583 2.568 3.762 2.568 6.163v55.831c0 2.4-.986 4.594-2.568 6.176-1.583 1.584-3.762 2.568-6.178 2.568h-82.371c-2.401 0-4.595-.984-6.177-2.568-1.583-1.582-2.568-3.762-2.568-6.176v-55.831c0-2.401.985-4.595 2.568-6.178 1.583-1.582 3.776-2.567 6.177-2.567zm82.371 3.998h-82.371c-1.305 0-2.485.541-3.345 1.401-.861.861-1.402 2.041-1.402 3.346v55.831c0 1.305.541 2.498 1.402 3.359.859.859 2.04 1.387 3.345 1.387h82.371c1.305 0 2.498-.527 3.359-1.387.86-.861 1.389-2.055 1.389-3.359v-55.831c0-1.305-.528-2.498-1.389-3.359v.014c-.861-.86-2.054-1.402-3.359-1.402z"/><path id="_x31_0" d="m61.368 38.006h33.412c1.902 0 3.65.777 4.9 2.04 1.249 1.263 2.041 2.999 2.041 4.9v11.729 1.999h-2-8.439-1.998v-1.999-6.495h-22.419v6.496 1.999h-2-8.439-1.999v-1.999-11.73c0-1.901.777-3.651 2.026-4.9 1.263-1.263 3-2.04 4.915-2.04zm33.411 3.998h-33.411c-.806 0-1.541.332-2.083.874-.527.528-.859 1.263-.859 2.068v9.73h4.441v-6.496-1.998h1.999 26.416 2v1.998 6.497h4.441v-9.73c0-.806-.333-1.541-.86-2.068h-.015c-.528-.542-1.263-.875-2.069-.875z"/><path id="_x39_" d="m22.084 108.495c1.097 0 1.999.887 1.999 1.998 0 1.096-.902 1.998-1.999 1.998h-16.087c-1.638 0-3.137-.68-4.234-1.762v-.014c-1.083-1.083-1.763-2.581-1.763-4.234v-100.485c0-1.638.68-3.137 1.763-4.233 1.082-1.083 2.581-1.763 4.234-1.763h56.231c.861 0 1.666.167 2.417.5.736.333 1.402.818 1.999 1.443v.014-.014l15.089 16.144c.041.042.069.083.111.125.484.541.832 1.139 1.082 1.763.25.681.389 1.402.389 2.166v9.8c0 1.11-.902 1.999-1.999 1.999-1.11 0-2.013-.889-2.013-1.999v-9.8c0-.278-.027-.527-.111-.75-.083-.18-.18-.347-.305-.514-.028-.027-.057-.041-.084-.069l-15.075-16.144c-.209-.222-.444-.389-.694-.514-.235-.097-.499-.152-.805-.152h-56.232c-.541 0-1.041.222-1.402.597l-.014-.014c-.361.36-.583.874-.583 1.415v100.485c0 .555.222 1.055.583 1.416l.014.014c.361.348.86.584 1.402.584z"/><path id="_x38_" d="m70.821 91.116-34.3-6.512c-2.318-.43-4.457-1.443-5.996-2.984-1.473-1.471-2.389-3.4-2.389-5.719h3.998c0 1.18.473 2.152 1.222 2.902.958.943 2.36 1.596 3.901 1.887l34.3 6.51zm57.176-15.215c0 2.318-.916 4.234-2.388 5.705v.014c-1.541 1.541-3.678 2.555-5.982 2.984l-34.301 6.566-.749-3.914 34.3-6.566c1.555-.305 2.957-.943 3.914-1.887.75-.75 1.208-1.723 1.208-2.902z"/><path id="_x37_" d="m50.943 17.864c1.11 0 1.999.889 1.999 1.999 0 1.097-.889 1.999-1.999 1.999h-27.9c-1.111 0-2-.902-2-1.999 0-1.11.889-1.999 2-1.999zm-37.424 0c1.111 0 2.014.889 2.014 1.999 0 1.097-.902 1.999-2.014 1.999h-1.498c-1.098 0-2-.902-2-1.999 0-1.11.902-1.999 2-1.999z"/><path id="_x36_" d="m37.797 36.007c1.097 0 1.999.901 1.999 1.999 0 1.11-.902 1.998-1.999 1.998h-14.755c-1.11 0-1.999-.888-1.999-1.998 0-1.097.889-1.999 1.999-1.999zm-24.277 0c1.11 0 2.013.901 2.013 1.999 0 1.11-.902 1.998-2.013 1.998h-1.499c-1.097 0-2-.888-2-1.998 0-1.097.902-1.999 2-1.999z"/><path id="_x35_" d="m50.943 26.942c1.11 0 1.999.889 1.999 1.999 0 1.096-.889 1.999-1.999 1.999h-27.9c-1.111 0-2-.902-2-1.999 0-1.11.889-1.999 2-1.999zm-37.424 0c1.111 0 2.014.889 2.014 1.999 0 1.096-.902 1.999-2.014 1.999h-1.498c-1.098 0-2-.902-2-1.999 0-1.11.902-1.999 2-1.999z"/><path id="_x34_" d="m64.283.735 18.197 19.753c.736.805.695 2.068-.125 2.817-.375.347-.859.528-1.346.528h-12.534c-2.137 0-4.067-.875-5.469-2.276-.041-.042-.084-.083-.125-.125-1.333-1.389-2.152-3.276-2.152-5.345v-14.088c0-1.097.889-1.999 2-1.999.623 0 1.179.291 1.554.735zm12.174 19.101-11.73-12.716v8.968c0 .999.389 1.901 1.014 2.567.027.028.056.056.084.084.68.68 1.623 1.096 2.65 1.096z"/><path id="_x33_" d="m90.893 10.771c-.222 1.082-1.276 1.776-2.359 1.541-1.083-.223-1.777-1.277-1.555-2.347l.764-3.637.999-4.733c.194-.943 1.027-1.597 1.957-1.597h3.498 3.498c1.013 0 1.847.75 1.985 1.735l1.471 6.996c1.027.292 2.027.639 2.998 1.041.986.403 1.943.875 2.859 1.389l6.122-3.998c.791-.514 1.832-.389 2.484.264h.015l2.471 2.471c.027.042.069.07.098.111l2.373 2.374c.693.68.764 1.763.223 2.54l-3.957 6.065c.527.917.986 1.874 1.402 2.86.389.971.736 1.971 1.027 2.998l7.135 1.513c.986.194 1.652 1.083 1.597 2.054v3.389 3.498c0 1.013-.749 1.86-1.735 1.985l-6.996 1.471c-.291 1.041-.639 2.041-1.027 2.998-.583 1.402-1.277 2.734-2.068 3.971-.582.943-1.818 1.221-2.762.624-.93-.597-1.207-1.832-.611-2.763.681-1.068 1.264-2.193 1.75-3.358.472-1.139.846-2.305 1.124-3.498.125-.791.735-1.444 1.555-1.624l6.772-1.416v-1.888h.014v-1.874l-6.788-1.43c-.735-.152-1.36-.722-1.541-1.513-.264-1.235-.652-2.429-1.138-3.608-.486-1.166-1.069-2.291-1.75-3.359-.402-.639-.416-1.472.014-2.152l3.791-5.802-1.223-1.235c-.041-.027-.068-.056-.111-.098l-1.332-1.332-5.678 3.706c-.652.499-1.555.555-2.275.097-1.069-.68-2.193-1.263-3.359-1.749-1.139-.472-2.318-.847-3.512-1.124-.777-.125-1.444-.722-1.61-1.555l-1.432-6.775h-1.873-1.889l-.652 3.137zm3.304 10.647c-1.111 0-2-.889-2-1.999s.889-1.999 2-1.999c4.524 0 8.619 1.833 11.59 4.803 2.957 2.957 4.789 7.052 4.789 11.577 0 1.194-.125 2.374-.375 3.498-.25 1.151-.625 2.263-1.109 3.331-.459 1-1.639 1.444-2.652.986-.999-.459-1.43-1.639-.971-2.638.36-.777.638-1.624.832-2.513.181-.86.278-1.749.278-2.665 0-3.415-1.388-6.511-3.623-8.759-2.249-2.233-5.345-3.622-8.759-3.622z"/><path id="_x32_" d="m71.474 75.958h13.2c1.042 0 1.985.43 2.666 1.109l.014.014c.681.682 1.11 1.639 1.11 2.68v14.631c0 2.859-1.165 5.455-3.054 7.342-1.873 1.889-4.483 3.055-7.343 3.055s-5.456-1.166-7.343-3.055c-1.875-1.887-3.055-4.482-3.055-7.342v-14.631c0-1.041.431-2 1.125-2.68v-.014c.694-.679 1.639-1.109 2.68-1.109zm12.993 3.998h-12.785v14.436c0 1.748.708 3.359 1.874 4.512 1.166 1.166 2.763 1.887 4.511 1.887 1.764 0 3.359-.721 4.525-1.887 1.152-1.152 1.875-2.764 1.875-4.512z"/><circle id="_x31_" cx="78.066" cy="94.127" r="1.999"/></g></svg>