<svg id="Layer_1" enable-background="new 0 0 512 512" viewBox="0 0 512 512" xmlns="http://www.w3.org/2000/svg"><path d="m256 97.49c18.52 0 33.6-15.07 33.6-33.6s-15.08-33.59-33.6-33.59-33.59 15.07-33.59 33.59 15.07 33.6 33.59 33.6zm0-55.19c11.91 0 21.6 9.69 21.6 21.59 0 11.91-9.69 21.6-21.6 21.6s-21.59-9.69-21.59-21.6c0-11.9 9.68-21.59 21.59-21.59zm89.61 70.6c15.49 0 28.09-12.6 28.09-28.09s-12.6-28.09-28.09-28.09-28.09 12.6-28.09 28.09 12.6 28.09 28.09 28.09zm0-44.18c8.87 0 16.09 7.22 16.09 16.09s-7.22 16.09-16.09 16.09-16.09-7.22-16.09-16.09 7.22-16.09 16.09-16.09zm-179.22 44.18c15.49 0 28.09-12.6 28.09-28.09s-12.6-28.09-28.09-28.09-28.09 12.6-28.09 28.09 12.6 28.09 28.09 28.09zm0-44.18c8.87 0 16.09 7.22 16.09 16.09s-7.22 16.09-16.09 16.09-16.09-7.22-16.09-16.09 7.22-16.09 16.09-16.09zm-50.36 110.14h77.05 125.82 77.05c1.6 0 3.13-.64 4.26-1.77s1.75-2.67 1.74-4.27c-.2-30.88-25.48-56-56.36-56-13.19 0-25.98 4.74-36.08 13.17-12.66-15.62-31.98-25.64-53.53-25.64s-40.87 10.02-53.53 25.64c-10.09-8.43-22.89-13.17-36.08-13.17-30.88 0-56.16 25.12-56.36 56-.01 1.6.62 3.13 1.74 4.27 1.15 1.14 2.69 1.77 4.28 1.77zm229.58-50.03c22.25 0 40.82 16.58 43.91 38.03h-64.92c-.9-9.67-3.8-18.77-8.3-26.88 8.08-7.13 18.53-11.15 29.31-11.15zm-89.61-12.48c29.14 0 53.35 22.16 56.55 50.51h-113.1c3.2-28.35 27.41-50.51 56.55-50.51zm-89.61 12.48c10.78 0 21.24 4.02 29.32 11.16-4.5 8.11-7.4 17.21-8.3 26.88h-64.92c3.08-21.46 21.64-38.04 43.9-38.04zm330.06 198.4-58.76-127.41c-1.39-3.01-4.95-4.32-7.96-2.94l-54.5 25.13c-1.45.67-2.57 1.88-3.12 3.37-.1.28-.18.57-.24.87l-6.04 2.53c-4.5 1.88-8.69 2.64-13.56 2.48-11.84-.41-21.19-3.29-31.09-6.34-10.56-3.26-21.48-6.62-35.22-6.62-.07 0-.15 0-.22 0-7.31.27-19.96 1.84-33.63 5.54-9.02-2.01-18.15-3.27-25.84-3.56-.07 0-.15 0-.22 0-13.74 0-24.66 3.37-35.22 6.62-9.9 3.05-19.26 5.93-31.09 6.34-4.89.16-9.06-.6-13.56-2.48l-6.04-2.53c-.06-.29-.14-.58-.24-.87-.55-1.49-1.67-2.71-3.12-3.37l-54.5-25.13c-3.01-1.39-6.57-.07-7.96 2.94l-58.77 127.41c-.67 1.45-.73 3.1-.18 4.59s1.67 2.71 3.12 3.37l54.5 25.13c.81.38 1.67.55 2.51.55 2.27 0 4.44-1.29 5.45-3.49l2.01-4.36 31.28 17.33c-.98 2.79-1.49 5.76-1.49 8.81 0 7.07 2.74 13.69 7.71 18.66 5.14 5.15 11.9 7.72 18.66 7.72.87 0 1.73-.04 2.6-.13-.08.85-.12 1.72-.12 2.59 0 7.07 2.74 13.69 7.71 18.66 5.14 5.15 11.9 7.72 18.66 7.72 3.02 0 6.04-.52 8.91-1.54.53 5.96 3.06 11.77 7.61 16.32 5.15 5.14 11.9 7.72 18.66 7.72 3.57 0 7.13-.72 10.46-2.16.68 5.66 3.18 11.14 7.52 15.48 4.97 4.97 11.6 7.71 18.66 7.71s13.69-2.74 18.66-7.71l.94-.94 6.35 4.93c4.81 3.74 10.51 5.55 16.17 5.55 7.87 0 15.67-3.5 20.86-10.18 3.38-4.35 5.27-9.54 5.5-14.96 3.39 1.5 7.01 2.24 10.61 2.24 7.87 0 15.67-3.5 20.86-10.18 4.15-5.33 6.05-11.92 5.41-18.65 1.13.15 2.26.24 3.39.24 7.87 0 15.67-3.5 20.86-10.18 4.31-5.55 6.21-12.46 5.33-19.47 0-.01 0-.02 0-.02.73.06 1.47.09 2.2.09 7.87 0 15.67-3.5 20.87-10.18 4.5-5.79 6.45-13.29 5.34-20.56-.12-.77-.27-1.52-.45-2.26l26.36-14.6 2.01 4.36c1.01 2.2 3.18 3.49 5.45 3.49.84 0 1.7-.18 2.51-.55l54.5-25.13c1.45-.67 2.57-1.88 3.12-3.37.54-1.53.48-3.18-.19-4.62zm-423.89 21.66-43.6-20.11 53.73-116.51 43.6 20.11zm56.38 42.43c-2.7-2.7-4.19-6.32-4.19-10.18s1.49-7.47 4.19-10.18l21.62-21.62c2.7-2.7 6.32-4.19 10.17-4.19 3.86 0 7.47 1.49 10.18 4.19 2.7 2.7 4.19 6.32 4.19 10.18s-1.49 7.47-4.19 10.18l-21.62 21.62c-5.61 5.61-14.74 5.61-20.35 0zm28.83 28.84c-2.7-2.7-4.19-6.32-4.19-10.18s1.49-7.47 4.19-10.18l35.45-35.45c5.61-5.61 14.74-5.61 20.35 0 2.7 2.7 4.19 6.32 4.19 10.18s-1.49 7.47-4.19 10.17l-29.1 29.1c-.01.01-.01.01-.02.02l-6.33 6.33c-2.7 2.7-6.32 4.19-10.18 4.19-3.85.01-7.46-1.48-10.17-4.18zm35.19 22.49c-5.61-5.61-5.61-14.74 0-20.35l36.68-36.68c2.81-2.81 6.49-4.21 10.18-4.21s7.37 1.4 10.18 4.21c2.7 2.7 4.19 6.32 4.19 10.18s-1.49 7.47-4.19 10.18l-36.68 36.68c-5.62 5.6-14.75 5.6-20.36-.01zm36.64 21.03c-5.61-5.61-5.61-14.74 0-20.35l21.31-21.31c5.61-5.6 14.74-5.6 20.35.01s5.61 14.74 0 20.35l-21.3 21.3c-5.62 5.62-14.75 5.61-20.36 0zm63.68.48c-4.87 6.26-13.93 7.4-20.2 2.53l-5.16-4.01 11.81-11.81c3.04-3.04 5.17-6.65 6.42-10.48l4.6 3.58c3.02 2.34 4.94 5.75 5.42 9.58s-.54 7.6-2.89 10.61zm95.04-81.08c-4.87 6.26-13.93 7.4-20.19 2.53l-3.36-2.61-55.34-43.03c-2.62-2.04-6.39-1.56-8.42 1.05-2.03 2.62-1.56 6.39 1.05 8.42l55.34 43.03.01.01c3.01 2.35 4.93 5.74 5.41 9.57s-.55 7.6-2.9 10.62c-2.34 3.02-5.75 4.94-9.58 5.42s-7.6-.55-10.62-2.89l-4.61-3.59c-.01-.01-.01-.01-.02-.02l-54.84-42.64c-2.62-2.04-6.38-1.56-8.42 1.05-2.03 2.62-1.56 6.39 1.05 8.42l54.84 42.64c3.02 2.34 4.94 5.75 5.42 9.58s-.55 7.6-2.89 10.62c-4.87 6.26-13.93 7.4-20.2 2.53l-11.94-9.28s-.01-.01-.01-.01l-11.53-8.96c-1.14-4.39-3.42-8.55-6.86-11.99-4.36-4.36-9.89-6.87-15.59-7.53 1.33-3.19 2.04-6.65 2.04-10.22 0-7.07-2.74-13.69-7.71-18.66-7.8-7.79-19.29-9.68-28.88-5.67-.66-5.7-3.17-11.23-7.53-15.6-9.7-9.7-25.13-10.25-35.49-1.66-1.02-5.03-3.48-9.65-7.17-13.35-4.97-4.97-11.6-7.71-18.66-7.71-7.07 0-13.69 2.74-18.66 7.71l-21.35 21.35-32.73-18.13 48.19-104.49 5.35 2.24c5.57 2.33 10.98 3.43 16.92 3.43.56 0 1.12-.01 1.69-.03 13.44-.46 24-3.72 34.22-6.87 10.13-3.12 19.7-6.07 31.58-6.09.82.03 1.67.08 2.52.14-15.56 7.4-29.22 18.29-34.3 33.95-6.44 19.85-6.43 33.01-6.41 51.22v3.12c0 1.62.66 3.17 1.82 4.3 5.96 5.79 13.11 8.86 20.65 8.86 17.6 0 25.32-13.45 32.14-25.32 6.72-11.7 12.52-21.81 26.54-21.81 4.92 0 9.94 1.6 13.44 4.27.07.06.15.11.22.16l103.49 71.9c2.81 1.96 4.67 5.02 5.22 8.62.63 4.04-.45 8.19-2.94 11.4zm8.82-26.1c-1.25-1.4-2.67-2.67-4.24-3.76l-103.38-71.83c-5.59-4.23-13.09-6.65-20.61-6.65-20.97 0-29.83 15.43-36.95 27.83-6.87 11.96-11.59 19.29-21.73 19.29-4.36 0-7.91-1.86-10.47-3.87v-.42c-.02-18.38-.03-29.47 5.82-47.51 9.03-27.82 58.97-38.94 80.5-39.77 11.88.02 21.45 2.97 31.57 6.09 10.22 3.15 20.78 6.41 34.22 6.87 6.6.22 12.51-.85 18.61-3.4l5.35-2.24 48.19 104.49zm42.3-10.07-53.73-116.51 43.6-20.11 53.73 116.51zm12.59-14.33c8.65 0 15.69-7.04 15.69-15.69s-7.04-15.69-15.69-15.69-15.69 7.04-15.69 15.69 7.04 15.69 15.69 15.69zm0-19.37c2.03 0 3.69 1.66 3.69 3.69s-1.66 3.69-3.69 3.69-3.69-1.65-3.69-3.69 1.66-3.69 3.69-3.69zm-392.06-10.02c-8.65 0-15.69 7.04-15.69 15.69s7.04 15.69 15.69 15.69 15.69-7.04 15.69-15.69-7.04-15.69-15.69-15.69zm0 19.38c-2.03 0-3.69-1.66-3.69-3.69s1.65-3.69 3.69-3.69 3.69 1.65 3.69 3.69-1.66 3.69-3.69 3.69z"/></svg>