<svg id="Layer_1" enable-background="new 0 0 60 60" height="512" viewBox="0 0 60 60" width="512" xmlns="http://www.w3.org/2000/svg"><path d="m15.233 12.42h2.427v7.215c0 .552.448 1 1 1s1-.448 1-1v-7.215h2.427c.552 0 1-.448 1-1s-.448-1-1-1h-6.854c-.552 0-1 .448-1 1s.448 1 1 1z"/><path d="m32.431 20.469c.17.113.362.167.551.167.324 0 .642-.157.834-.448l1.887-2.849 1.887 2.849c.192.291.51.448.834.448.189 0 .381-.054.551-.167.46-.305.586-.925.281-1.386l-2.355-3.555 2.355-3.555c.305-.46.179-1.081-.281-1.386-.461-.306-1.082-.179-1.386.281l-1.887 2.849-1.887-2.849c-.305-.46-.926-.587-1.386-.281-.46.305-.586.925-.281 1.386l2.355 3.555-2.355 3.555c-.303.461-.177 1.082.283 1.386z"/><path d="m24.205 20.587c.103.033.207.049.309.049.422 0 .814-.269.951-.691l.506-1.559h2.423l.506 1.559c.171.524.734.813 1.26.642.525-.171.812-.735.642-1.26l-2.669-8.215c-.133-.413-.518-.692-.951-.692s-.817.279-.951.691l-2.668 8.215c-.171.526.117 1.09.642 1.261zm2.977-5.93.562 1.729h-1.123z"/><path d="m14.937 28.912h12.246c.552 0 1-.448 1-1s-.448-1-1-1h-12.246c-.552 0-1 .448-1 1s.447 1 1 1z"/><path d="m39.722 34.842c0-.552-.448-1-1-1h-23.785c-.552 0-1 .448-1 1s.448 1 1 1h23.785c.552 0 1-.448 1-1z"/><path d="m33.336 40.772h-18.399c-.552 0-1 .448-1 1s.448 1 1 1h18.399c.552 0 1-.448 1-1s-.448-1-1-1z"/><path d="m44.588 40.394v-34.394c0-.552-.448-1-1-1h-33.518c-.552 0-1 .448-1 1v41.659c0 .552.448 1 1 1h26.253c.49 3.575 3.557 6.341 7.265 6.341 4.048 0 7.342-3.293 7.342-7.341 0-3.708-2.766-6.775-6.342-7.265zm-33.518 6.265v-39.659h31.518v33.394c-3.247.445-5.82 3.018-6.265 6.265zm32.518 6.341c-2.945 0-5.341-2.396-5.341-5.341s2.396-5.341 5.341-5.341 5.342 2.396 5.342 5.341-2.397 5.341-5.342 5.341z"/><path d="m44.99 45.628-1.941 1.94-.862-.862c-.391-.391-1.023-.391-1.414 0s-.391 1.023 0 1.414l1.569 1.569c.195.195.451.293.707.293s.512-.098.707-.293l2.648-2.647c.391-.39.391-1.023 0-1.414s-1.024-.391-1.414 0z"/></svg>